<mxfile host="app.diagrams.net" agent="Mozilla/5.0 (X11; Linux x86_64; rv:138.0) Gecko/20100101 Firefox/138.0" version="27.0.3">
  <diagram name="Page-1" id="FWyPqxEjXuNEc0cRYJci">
    <mxGraphModel dx="2066" dy="1066" grid="1" gridSize="10" guides="1" tooltips="1" connect="1" arrows="1" fold="1" page="1" pageScale="1" pageWidth="850" pageHeight="1100" math="0" shadow="0">
      <root>
        <mxCell id="0" />
        <mxCell id="1" parent="0" />
        <mxCell id="le88KfuYgvfjUTMIwj5V-2" style="edgeStyle=orthogonalEdgeStyle;rounded=0;orthogonalLoop=1;jettySize=auto;html=1;" parent="1" source="le88KfuYgvfjUTMIwj5V-1" target="le88KfuYgvfjUTMIwj5V-3" edge="1">
          <mxGeometry relative="1" as="geometry">
            <mxPoint x="210" y="150" as="targetPoint" />
          </mxGeometry>
        </mxCell>
        <mxCell id="le88KfuYgvfjUTMIwj5V-1" value="PDF ingestion" style="whiteSpace=wrap;html=1;aspect=fixed;" parent="1" vertex="1">
          <mxGeometry x="20" y="110" width="80" height="80" as="geometry" />
        </mxCell>
        <mxCell id="le88KfuYgvfjUTMIwj5V-4" style="edgeStyle=orthogonalEdgeStyle;rounded=0;orthogonalLoop=1;jettySize=auto;html=1;" parent="1" source="le88KfuYgvfjUTMIwj5V-3" target="le88KfuYgvfjUTMIwj5V-5" edge="1">
          <mxGeometry relative="1" as="geometry">
            <mxPoint x="360" y="150" as="targetPoint" />
          </mxGeometry>
        </mxCell>
        <mxCell id="le88KfuYgvfjUTMIwj5V-3" value="Extract data" style="whiteSpace=wrap;html=1;aspect=fixed;" parent="1" vertex="1">
          <mxGeometry x="140" y="110" width="80" height="80" as="geometry" />
        </mxCell>
        <mxCell id="le88KfuYgvfjUTMIwj5V-6" style="edgeStyle=orthogonalEdgeStyle;rounded=0;orthogonalLoop=1;jettySize=auto;html=1;" parent="1" source="le88KfuYgvfjUTMIwj5V-5" target="le88KfuYgvfjUTMIwj5V-7" edge="1">
          <mxGeometry relative="1" as="geometry">
            <mxPoint x="490" y="150" as="targetPoint" />
          </mxGeometry>
        </mxCell>
        <mxCell id="le88KfuYgvfjUTMIwj5V-5" value="Chunking and processing" style="whiteSpace=wrap;html=1;aspect=fixed;" parent="1" vertex="1">
          <mxGeometry x="260" y="110" width="80" height="80" as="geometry" />
        </mxCell>
        <mxCell id="le88KfuYgvfjUTMIwj5V-8" style="edgeStyle=orthogonalEdgeStyle;rounded=0;orthogonalLoop=1;jettySize=auto;html=1;" parent="1" source="le88KfuYgvfjUTMIwj5V-7" target="le88KfuYgvfjUTMIwj5V-9" edge="1">
          <mxGeometry relative="1" as="geometry">
            <mxPoint x="610" y="150" as="targetPoint" />
          </mxGeometry>
        </mxCell>
        <mxCell id="le88KfuYgvfjUTMIwj5V-7" value="Create embeddings" style="whiteSpace=wrap;html=1;aspect=fixed;" parent="1" vertex="1">
          <mxGeometry x="380" y="110" width="80" height="80" as="geometry" />
        </mxCell>
        <mxCell id="le88KfuYgvfjUTMIwj5V-10" style="edgeStyle=orthogonalEdgeStyle;rounded=0;orthogonalLoop=1;jettySize=auto;html=1;" parent="1" source="le88KfuYgvfjUTMIwj5V-9" target="le88KfuYgvfjUTMIwj5V-11" edge="1">
          <mxGeometry relative="1" as="geometry">
            <mxPoint x="730" y="150" as="targetPoint" />
          </mxGeometry>
        </mxCell>
        <mxCell id="le88KfuYgvfjUTMIwj5V-9" value="Vector store" style="whiteSpace=wrap;html=1;aspect=fixed;" parent="1" vertex="1">
          <mxGeometry x="500" y="110" width="80" height="80" as="geometry" />
        </mxCell>
        <mxCell id="le88KfuYgvfjUTMIwj5V-12" style="edgeStyle=orthogonalEdgeStyle;rounded=0;orthogonalLoop=1;jettySize=auto;html=1;" parent="1" source="le88KfuYgvfjUTMIwj5V-11" target="le88KfuYgvfjUTMIwj5V-13" edge="1">
          <mxGeometry relative="1" as="geometry">
            <mxPoint x="860" y="150" as="targetPoint" />
          </mxGeometry>
        </mxCell>
        <mxCell id="le88KfuYgvfjUTMIwj5V-11" value="Query" style="whiteSpace=wrap;html=1;aspect=fixed;" parent="1" vertex="1">
          <mxGeometry x="620" y="110" width="80" height="80" as="geometry" />
        </mxCell>
        <mxCell id="le88KfuYgvfjUTMIwj5V-13" value="Process into ouput" style="whiteSpace=wrap;html=1;aspect=fixed;" parent="1" vertex="1">
          <mxGeometry x="740" y="110" width="80" height="80" as="geometry" />
        </mxCell>
        <mxCell id="93mna4lZ3kdAWibTW48x-6" value="&lt;b&gt;Option 2:&lt;/b&gt; LLM-Augmented ETL with DBT" style="text;html=1;align=center;verticalAlign=middle;resizable=0;points=[];autosize=1;strokeColor=none;fillColor=none;" parent="1" vertex="1">
          <mxGeometry x="10" y="250" width="240" height="30" as="geometry" />
        </mxCell>
        <mxCell id="93mna4lZ3kdAWibTW48x-7" style="edgeStyle=orthogonalEdgeStyle;rounded=0;orthogonalLoop=1;jettySize=auto;html=1;" parent="1" source="93mna4lZ3kdAWibTW48x-8" target="93mna4lZ3kdAWibTW48x-10" edge="1">
          <mxGeometry relative="1" as="geometry">
            <mxPoint x="210" y="350" as="targetPoint" />
          </mxGeometry>
        </mxCell>
        <mxCell id="93mna4lZ3kdAWibTW48x-8" value="PDF ingestion" style="whiteSpace=wrap;html=1;aspect=fixed;" parent="1" vertex="1">
          <mxGeometry x="20" y="310" width="80" height="80" as="geometry" />
        </mxCell>
        <mxCell id="93mna4lZ3kdAWibTW48x-9" style="edgeStyle=orthogonalEdgeStyle;rounded=0;orthogonalLoop=1;jettySize=auto;html=1;" parent="1" source="93mna4lZ3kdAWibTW48x-10" target="93mna4lZ3kdAWibTW48x-12" edge="1">
          <mxGeometry relative="1" as="geometry">
            <mxPoint x="360" y="350" as="targetPoint" />
          </mxGeometry>
        </mxCell>
        <mxCell id="93mna4lZ3kdAWibTW48x-10" value="Extract data" style="whiteSpace=wrap;html=1;aspect=fixed;" parent="1" vertex="1">
          <mxGeometry x="140" y="310" width="80" height="80" as="geometry" />
        </mxCell>
        <mxCell id="93mna4lZ3kdAWibTW48x-11" style="edgeStyle=orthogonalEdgeStyle;rounded=0;orthogonalLoop=1;jettySize=auto;html=1;" parent="1" source="93mna4lZ3kdAWibTW48x-12" target="93mna4lZ3kdAWibTW48x-14" edge="1">
          <mxGeometry relative="1" as="geometry">
            <mxPoint x="490" y="350" as="targetPoint" />
          </mxGeometry>
        </mxCell>
        <mxCell id="93mna4lZ3kdAWibTW48x-12" value="Ask LLM to structure data" style="whiteSpace=wrap;html=1;aspect=fixed;" parent="1" vertex="1">
          <mxGeometry x="260" y="310" width="80" height="80" as="geometry" />
        </mxCell>
        <mxCell id="93mna4lZ3kdAWibTW48x-13" style="edgeStyle=orthogonalEdgeStyle;rounded=0;orthogonalLoop=1;jettySize=auto;html=1;" parent="1" source="93mna4lZ3kdAWibTW48x-14" target="93mna4lZ3kdAWibTW48x-16" edge="1">
          <mxGeometry relative="1" as="geometry">
            <mxPoint x="610" y="350" as="targetPoint" />
          </mxGeometry>
        </mxCell>
        <mxCell id="93mna4lZ3kdAWibTW48x-14" value="Store in database" style="whiteSpace=wrap;html=1;aspect=fixed;" parent="1" vertex="1">
          <mxGeometry x="380" y="310" width="80" height="80" as="geometry" />
        </mxCell>
        <mxCell id="93mna4lZ3kdAWibTW48x-15" style="edgeStyle=orthogonalEdgeStyle;rounded=0;orthogonalLoop=1;jettySize=auto;html=1;" parent="1" source="93mna4lZ3kdAWibTW48x-16" target="93mna4lZ3kdAWibTW48x-18" edge="1">
          <mxGeometry relative="1" as="geometry">
            <mxPoint x="730" y="350" as="targetPoint" />
          </mxGeometry>
        </mxCell>
        <mxCell id="93mna4lZ3kdAWibTW48x-16" value="Transform" style="whiteSpace=wrap;html=1;aspect=fixed;" parent="1" vertex="1">
          <mxGeometry x="500" y="310" width="80" height="80" as="geometry" />
        </mxCell>
        <mxCell id="93mna4lZ3kdAWibTW48x-17" style="edgeStyle=orthogonalEdgeStyle;rounded=0;orthogonalLoop=1;jettySize=auto;html=1;" parent="1" source="93mna4lZ3kdAWibTW48x-18" target="93mna4lZ3kdAWibTW48x-19" edge="1">
          <mxGeometry relative="1" as="geometry">
            <mxPoint x="860" y="350" as="targetPoint" />
          </mxGeometry>
        </mxCell>
        <mxCell id="93mna4lZ3kdAWibTW48x-18" value="Query" style="whiteSpace=wrap;html=1;aspect=fixed;" parent="1" vertex="1">
          <mxGeometry x="620" y="310" width="80" height="80" as="geometry" />
        </mxCell>
        <mxCell id="93mna4lZ3kdAWibTW48x-19" value="Process into ouput" style="whiteSpace=wrap;html=1;aspect=fixed;" parent="1" vertex="1">
          <mxGeometry x="740" y="310" width="80" height="80" as="geometry" />
        </mxCell>
        <mxCell id="93mna4lZ3kdAWibTW48x-24" value="&lt;div&gt;&lt;b&gt;&lt;font style=&quot;font-size: 15px;&quot;&gt;Approaches:&lt;/font&gt;&lt;/b&gt;&lt;/div&gt;" style="text;html=1;align=center;verticalAlign=middle;resizable=0;points=[];autosize=1;strokeColor=none;fillColor=none;" parent="1" vertex="1">
          <mxGeometry y="8" width="120" height="30" as="geometry" />
        </mxCell>
        <mxCell id="93mna4lZ3kdAWibTW48x-32" value="&lt;b&gt;Option 1: &lt;/b&gt;RAG" style="text;html=1;align=center;verticalAlign=middle;resizable=0;points=[];autosize=1;strokeColor=none;fillColor=none;" parent="1" vertex="1">
          <mxGeometry y="48" width="110" height="30" as="geometry" />
        </mxCell>
        <mxCell id="93mna4lZ3kdAWibTW48x-33" value="" style="shape=table;startSize=0;container=1;collapsible=0;childLayout=tableLayout;fontSize=16;" parent="1" vertex="1">
          <mxGeometry x="20" y="510" width="745" height="120" as="geometry" />
        </mxCell>
        <mxCell id="93mna4lZ3kdAWibTW48x-34" value="" style="shape=tableRow;horizontal=0;startSize=0;swimlaneHead=0;swimlaneBody=0;strokeColor=inherit;top=0;left=0;bottom=0;right=0;collapsible=0;dropTarget=0;fillColor=none;points=[[0,0.5],[1,0.5]];portConstraint=eastwest;fontSize=16;" parent="93mna4lZ3kdAWibTW48x-33" vertex="1">
          <mxGeometry width="745" height="40" as="geometry" />
        </mxCell>
        <mxCell id="93mna4lZ3kdAWibTW48x-35" value="&lt;b&gt;Criteria&lt;/b&gt;" style="shape=partialRectangle;html=1;whiteSpace=wrap;connectable=0;strokeColor=inherit;overflow=hidden;fillColor=none;top=0;left=0;bottom=0;right=0;pointerEvents=1;fontSize=16;" parent="93mna4lZ3kdAWibTW48x-34" vertex="1">
          <mxGeometry width="248" height="40" as="geometry">
            <mxRectangle width="248" height="40" as="alternateBounds" />
          </mxGeometry>
        </mxCell>
        <mxCell id="93mna4lZ3kdAWibTW48x-36" value="&lt;b&gt;RAG&lt;/b&gt;" style="shape=partialRectangle;html=1;whiteSpace=wrap;connectable=0;strokeColor=inherit;overflow=hidden;fillColor=none;top=0;left=0;bottom=0;right=0;pointerEvents=1;fontSize=16;" parent="93mna4lZ3kdAWibTW48x-34" vertex="1">
          <mxGeometry x="248" width="249" height="40" as="geometry">
            <mxRectangle width="249" height="40" as="alternateBounds" />
          </mxGeometry>
        </mxCell>
        <mxCell id="93mna4lZ3kdAWibTW48x-37" value="&lt;b&gt;DBT&lt;/b&gt;" style="shape=partialRectangle;html=1;whiteSpace=wrap;connectable=0;strokeColor=inherit;overflow=hidden;fillColor=none;top=0;left=0;bottom=0;right=0;pointerEvents=1;fontSize=16;" parent="93mna4lZ3kdAWibTW48x-34" vertex="1">
          <mxGeometry x="497" width="248" height="40" as="geometry">
            <mxRectangle width="248" height="40" as="alternateBounds" />
          </mxGeometry>
        </mxCell>
        <mxCell id="93mna4lZ3kdAWibTW48x-38" value="" style="shape=tableRow;horizontal=0;startSize=0;swimlaneHead=0;swimlaneBody=0;strokeColor=inherit;top=0;left=0;bottom=0;right=0;collapsible=0;dropTarget=0;fillColor=none;points=[[0,0.5],[1,0.5]];portConstraint=eastwest;fontSize=16;" parent="93mna4lZ3kdAWibTW48x-33" vertex="1">
          <mxGeometry y="40" width="745" height="40" as="geometry" />
        </mxCell>
        <mxCell id="93mna4lZ3kdAWibTW48x-39" value="Cost" style="shape=partialRectangle;html=1;whiteSpace=wrap;connectable=0;strokeColor=inherit;overflow=hidden;fillColor=none;top=0;left=0;bottom=0;right=0;pointerEvents=1;fontSize=16;" parent="93mna4lZ3kdAWibTW48x-38" vertex="1">
          <mxGeometry width="248" height="40" as="geometry">
            <mxRectangle width="248" height="40" as="alternateBounds" />
          </mxGeometry>
        </mxCell>
        <mxCell id="93mna4lZ3kdAWibTW48x-40" value="Free or low-cost" style="shape=partialRectangle;html=1;whiteSpace=wrap;connectable=0;strokeColor=inherit;overflow=hidden;fillColor=none;top=0;left=0;bottom=0;right=0;pointerEvents=1;fontSize=16;" parent="93mna4lZ3kdAWibTW48x-38" vertex="1">
          <mxGeometry x="248" width="249" height="40" as="geometry">
            <mxRectangle width="249" height="40" as="alternateBounds" />
          </mxGeometry>
        </mxCell>
        <mxCell id="93mna4lZ3kdAWibTW48x-41" value="Free" style="shape=partialRectangle;html=1;whiteSpace=wrap;connectable=0;strokeColor=inherit;overflow=hidden;fillColor=none;top=0;left=0;bottom=0;right=0;pointerEvents=1;fontSize=16;" parent="93mna4lZ3kdAWibTW48x-38" vertex="1">
          <mxGeometry x="497" width="248" height="40" as="geometry">
            <mxRectangle width="248" height="40" as="alternateBounds" />
          </mxGeometry>
        </mxCell>
        <mxCell id="93mna4lZ3kdAWibTW48x-42" value="" style="shape=tableRow;horizontal=0;startSize=0;swimlaneHead=0;swimlaneBody=0;strokeColor=inherit;top=0;left=0;bottom=0;right=0;collapsible=0;dropTarget=0;fillColor=none;points=[[0,0.5],[1,0.5]];portConstraint=eastwest;fontSize=16;" parent="93mna4lZ3kdAWibTW48x-33" vertex="1">
          <mxGeometry y="80" width="745" height="40" as="geometry" />
        </mxCell>
        <mxCell id="93mna4lZ3kdAWibTW48x-43" value="Learning Potential" style="shape=partialRectangle;html=1;whiteSpace=wrap;connectable=0;strokeColor=inherit;overflow=hidden;fillColor=none;top=0;left=0;bottom=0;right=0;pointerEvents=1;fontSize=16;" parent="93mna4lZ3kdAWibTW48x-42" vertex="1">
          <mxGeometry width="248" height="40" as="geometry">
            <mxRectangle width="248" height="40" as="alternateBounds" />
          </mxGeometry>
        </mxCell>
        <mxCell id="93mna4lZ3kdAWibTW48x-44" value="High" style="shape=partialRectangle;html=1;whiteSpace=wrap;connectable=0;strokeColor=inherit;overflow=hidden;fillColor=none;top=0;left=0;bottom=0;right=0;pointerEvents=1;fontSize=16;" parent="93mna4lZ3kdAWibTW48x-42" vertex="1">
          <mxGeometry x="248" width="249" height="40" as="geometry">
            <mxRectangle width="249" height="40" as="alternateBounds" />
          </mxGeometry>
        </mxCell>
        <mxCell id="93mna4lZ3kdAWibTW48x-45" value="Low" style="shape=partialRectangle;html=1;whiteSpace=wrap;connectable=0;strokeColor=inherit;overflow=hidden;fillColor=none;top=0;left=0;bottom=0;right=0;pointerEvents=1;fontSize=16;" parent="93mna4lZ3kdAWibTW48x-42" vertex="1">
          <mxGeometry x="497" width="248" height="40" as="geometry">
            <mxRectangle width="248" height="40" as="alternateBounds" />
          </mxGeometry>
        </mxCell>
        <mxCell id="93mna4lZ3kdAWibTW48x-47" value="&lt;font style=&quot;font-size: 15px;&quot;&gt;&lt;b&gt;&lt;font&gt;Comparison:&lt;/font&gt;&lt;/b&gt;&lt;/font&gt;" style="text;html=1;align=center;verticalAlign=middle;resizable=0;points=[];autosize=1;strokeColor=none;fillColor=none;" parent="1" vertex="1">
          <mxGeometry y="438" width="120" height="30" as="geometry" />
        </mxCell>
        <mxCell id="93mna4lZ3kdAWibTW48x-48" value="" style="shape=table;startSize=0;container=1;collapsible=0;childLayout=tableLayout;fontSize=16;" parent="1" vertex="1">
          <mxGeometry x="20" y="630" width="745" height="120" as="geometry" />
        </mxCell>
        <mxCell id="93mna4lZ3kdAWibTW48x-49" value="" style="shape=tableRow;horizontal=0;startSize=0;swimlaneHead=0;swimlaneBody=0;strokeColor=inherit;top=0;left=0;bottom=0;right=0;collapsible=0;dropTarget=0;fillColor=none;points=[[0,0.5],[1,0.5]];portConstraint=eastwest;fontSize=16;" parent="93mna4lZ3kdAWibTW48x-48" vertex="1">
          <mxGeometry width="745" height="40" as="geometry" />
        </mxCell>
        <mxCell id="93mna4lZ3kdAWibTW48x-50" value="Time Investment" style="shape=partialRectangle;html=1;whiteSpace=wrap;connectable=0;strokeColor=inherit;overflow=hidden;fillColor=none;top=0;left=0;bottom=0;right=0;pointerEvents=1;fontSize=16;" parent="93mna4lZ3kdAWibTW48x-49" vertex="1">
          <mxGeometry width="248" height="40" as="geometry">
            <mxRectangle width="248" height="40" as="alternateBounds" />
          </mxGeometry>
        </mxCell>
        <mxCell id="93mna4lZ3kdAWibTW48x-51" value="Large" style="shape=partialRectangle;html=1;whiteSpace=wrap;connectable=0;strokeColor=inherit;overflow=hidden;fillColor=none;top=0;left=0;bottom=0;right=0;pointerEvents=1;fontSize=16;" parent="93mna4lZ3kdAWibTW48x-49" vertex="1">
          <mxGeometry x="248" width="249" height="40" as="geometry">
            <mxRectangle width="249" height="40" as="alternateBounds" />
          </mxGeometry>
        </mxCell>
        <mxCell id="93mna4lZ3kdAWibTW48x-52" value="Medium" style="shape=partialRectangle;html=1;whiteSpace=wrap;connectable=0;strokeColor=inherit;overflow=hidden;fillColor=none;top=0;left=0;bottom=0;right=0;pointerEvents=1;fontSize=16;" parent="93mna4lZ3kdAWibTW48x-49" vertex="1">
          <mxGeometry x="497" width="248" height="40" as="geometry">
            <mxRectangle width="248" height="40" as="alternateBounds" />
          </mxGeometry>
        </mxCell>
        <mxCell id="93mna4lZ3kdAWibTW48x-53" value="" style="shape=tableRow;horizontal=0;startSize=0;swimlaneHead=0;swimlaneBody=0;strokeColor=inherit;top=0;left=0;bottom=0;right=0;collapsible=0;dropTarget=0;fillColor=none;points=[[0,0.5],[1,0.5]];portConstraint=eastwest;fontSize=16;" parent="93mna4lZ3kdAWibTW48x-48" vertex="1">
          <mxGeometry y="40" width="745" height="40" as="geometry" />
        </mxCell>
        <mxCell id="93mna4lZ3kdAWibTW48x-54" value="Implementation Difficulty" style="shape=partialRectangle;html=1;whiteSpace=wrap;connectable=0;strokeColor=inherit;overflow=hidden;fillColor=none;top=0;left=0;bottom=0;right=0;pointerEvents=1;fontSize=16;" parent="93mna4lZ3kdAWibTW48x-53" vertex="1">
          <mxGeometry width="248" height="40" as="geometry">
            <mxRectangle width="248" height="40" as="alternateBounds" />
          </mxGeometry>
        </mxCell>
        <mxCell id="93mna4lZ3kdAWibTW48x-55" value="Medium-High" style="shape=partialRectangle;html=1;whiteSpace=wrap;connectable=0;strokeColor=inherit;overflow=hidden;fillColor=none;top=0;left=0;bottom=0;right=0;pointerEvents=1;fontSize=16;" parent="93mna4lZ3kdAWibTW48x-53" vertex="1">
          <mxGeometry x="248" width="249" height="40" as="geometry">
            <mxRectangle width="249" height="40" as="alternateBounds" />
          </mxGeometry>
        </mxCell>
        <mxCell id="93mna4lZ3kdAWibTW48x-56" value="Medium" style="shape=partialRectangle;html=1;whiteSpace=wrap;connectable=0;strokeColor=inherit;overflow=hidden;fillColor=none;top=0;left=0;bottom=0;right=0;pointerEvents=1;fontSize=16;" parent="93mna4lZ3kdAWibTW48x-53" vertex="1">
          <mxGeometry x="497" width="248" height="40" as="geometry">
            <mxRectangle width="248" height="40" as="alternateBounds" />
          </mxGeometry>
        </mxCell>
        <mxCell id="93mna4lZ3kdAWibTW48x-57" value="" style="shape=tableRow;horizontal=0;startSize=0;swimlaneHead=0;swimlaneBody=0;strokeColor=inherit;top=0;left=0;bottom=0;right=0;collapsible=0;dropTarget=0;fillColor=none;points=[[0,0.5],[1,0.5]];portConstraint=eastwest;fontSize=16;" parent="93mna4lZ3kdAWibTW48x-48" vertex="1">
          <mxGeometry y="80" width="745" height="40" as="geometry" />
        </mxCell>
        <mxCell id="93mna4lZ3kdAWibTW48x-58" value="Excitement Level" style="shape=partialRectangle;html=1;whiteSpace=wrap;connectable=0;strokeColor=inherit;overflow=hidden;fillColor=none;top=0;left=0;bottom=0;right=0;pointerEvents=1;fontSize=16;" parent="93mna4lZ3kdAWibTW48x-57" vertex="1">
          <mxGeometry width="248" height="40" as="geometry">
            <mxRectangle width="248" height="40" as="alternateBounds" />
          </mxGeometry>
        </mxCell>
        <mxCell id="93mna4lZ3kdAWibTW48x-59" value="High" style="shape=partialRectangle;html=1;whiteSpace=wrap;connectable=0;strokeColor=inherit;overflow=hidden;fillColor=none;top=0;left=0;bottom=0;right=0;pointerEvents=1;fontSize=16;" parent="93mna4lZ3kdAWibTW48x-57" vertex="1">
          <mxGeometry x="248" width="249" height="40" as="geometry">
            <mxRectangle width="249" height="40" as="alternateBounds" />
          </mxGeometry>
        </mxCell>
        <mxCell id="93mna4lZ3kdAWibTW48x-60" value="Low" style="shape=partialRectangle;html=1;whiteSpace=wrap;connectable=0;strokeColor=inherit;overflow=hidden;fillColor=none;top=0;left=0;bottom=0;right=0;pointerEvents=1;fontSize=16;" parent="93mna4lZ3kdAWibTW48x-57" vertex="1">
          <mxGeometry x="497" width="248" height="40" as="geometry">
            <mxRectangle width="248" height="40" as="alternateBounds" />
          </mxGeometry>
        </mxCell>
        <mxCell id="93mna4lZ3kdAWibTW48x-61" value="&lt;div align=&quot;left&quot;&gt;&lt;b&gt;&lt;font style=&quot;font-size: 15px;&quot;&gt;Outcome: &lt;/font&gt;&lt;br&gt;&lt;/b&gt;&lt;/div&gt;&lt;div align=&quot;left&quot;&gt;&lt;ul&gt;&lt;li&gt;&lt;font&gt;Use RAG approach due to new learnings and excitement&lt;/font&gt;&lt;/li&gt;&lt;/ul&gt;&lt;/div&gt;" style="text;html=1;align=left;verticalAlign=middle;resizable=0;points=[];autosize=1;strokeColor=none;fillColor=none;" parent="1" vertex="1">
          <mxGeometry y="788" width="360" height="70" as="geometry" />
        </mxCell>
        <mxCell id="93mna4lZ3kdAWibTW48x-62" value="&lt;div align=&quot;left&quot;&gt;&lt;b&gt;&lt;font style=&quot;font-size: 15px;&quot;&gt;Tooling:&lt;/font&gt;&lt;/b&gt;&lt;br&gt;&lt;ul&gt;&lt;li&gt;User would need to upload their data. This would need to be done through a front-end. Could use a familiar tool like Streamlit, or try something new&lt;/li&gt;&lt;li&gt;Need to extract the data from the PDF. Can use a python library or OCR&lt;/li&gt;&lt;li&gt;Need to research best approach for preparing data for embeddings&lt;/li&gt;&lt;li&gt;Use model to do the embeddings&lt;/li&gt;&lt;li&gt;Need to research suitable vector stores&lt;/li&gt;&lt;li&gt;Decide on format of output, or how a user can interact with the tool&lt;/li&gt;&lt;li&gt;Decide whether or not to run locally, or use cloud-services where possible&lt;/li&gt;&lt;/ul&gt;&lt;/div&gt;&lt;div align=&quot;left&quot;&gt;&lt;br&gt;&lt;/div&gt;" style="text;html=1;align=left;verticalAlign=middle;resizable=0;points=[];autosize=1;strokeColor=none;fillColor=none;" parent="1" vertex="1">
          <mxGeometry y="890" width="840" height="180" as="geometry" />
        </mxCell>
        <mxCell id="uvxar91uTMjzyahuhUPR-1" value="&lt;div align=&quot;left&quot;&gt;&lt;font style=&quot;font-size: 15px;&quot;&gt;&lt;b&gt;Notes:&lt;/b&gt;&lt;/font&gt;&lt;br&gt;&lt;ul&gt;&lt;li&gt;Vectorising tabular data: Metadata to reference a table. Loose a lot of context like seasons, patterns.&lt;/li&gt;&lt;li&gt;Table -&amp;gt; Vector store or Vector store -&amp;gt; Table&lt;/li&gt;&lt;li&gt;How can we use a vector store with tabular data&lt;/li&gt;&lt;li&gt;Vector store to determine correct table &lt;br&gt;&lt;/li&gt;&lt;li&gt;Vector store to retrieve context for the LLM: Context of the person, likes, dislikes, risk tolerance: What can we gather from how the question is asked&lt;/li&gt;&lt;li&gt;Agentic flow in relation to creation of SQL queries&lt;/li&gt;&lt;li&gt;Where do I not need an LLM? (Predefined query strings)&lt;/li&gt;&lt;li&gt;Predict trends going forward for the person with their data: How much can I invest? What can I do with my money?&lt;/li&gt;&lt;li&gt;Include financial advise as a part of the vector store&lt;/li&gt;&lt;li&gt;Are there patterns between my years of spending&lt;/li&gt;&lt;li&gt;Stock allocation ~ your money: Is my money being spent wisely. Does your spending align with mental health/goals/good habits - balance physical and mental&lt;/li&gt;&lt;li&gt;I expect a distribution (profile) -&amp;gt; is there a profile you&#39;d like to meet&lt;/li&gt;&lt;li&gt;What is the user journey?&lt;/li&gt;&lt;li&gt;What problem am I solving for; how can I help others solve their specific problems&lt;/li&gt;&lt;li&gt;What action is taken when finding out the answer? How can they best use the data provided?&lt;/li&gt;&lt;li&gt;Short and long term actions: Spend less on food (short), finish contracts or pay debt (long)&lt;/li&gt;&lt;li&gt;Creating profile using LLM at MC&lt;/li&gt;&lt;li&gt;Disclaimer of it not being financial advice: Just a silly little tool&lt;/li&gt;&lt;li&gt;Financial needs analysis tools have requirements&lt;/li&gt;&lt;/ul&gt;&lt;/div&gt;" style="text;html=1;align=left;verticalAlign=middle;resizable=0;points=[];autosize=1;strokeColor=none;fillColor=none;" vertex="1" parent="1">
          <mxGeometry y="1060" width="900" height="370" as="geometry" />
        </mxCell>
        <mxCell id="uvxar91uTMjzyahuhUPR-2" value="&lt;div align=&quot;left&quot;&gt;&lt;b&gt;&lt;font style=&quot;font-size: 15px;&quot;&gt;Adjusted Approach&lt;/font&gt;:&lt;/b&gt;&amp;nbsp;&lt;/div&gt;&lt;div align=&quot;left&quot;&gt;&lt;ul&gt;&lt;li&gt;For now, will not scope in supporting documents&lt;/li&gt;&lt;li&gt;Journey will focus on the user uploading their banking statements&lt;/li&gt;&lt;li&gt;Statement will be processed to allow the user to ask questions related to their data through a chat interface&lt;/li&gt;&lt;li&gt;Use combination of Vector Store and DB&lt;/li&gt;&lt;li&gt;Vector store for qualitative data&lt;/li&gt;&lt;li&gt;DB for structured data&lt;/li&gt;&lt;li&gt;Vector store will assist with querying the DB&lt;/li&gt;&lt;li&gt;Simple example: The qualitative data available will affect how or if this is used (Assuming we will at least have a description. Can add other data like Month names or weekdays)&lt;/li&gt;&lt;ul&gt;&lt;li&gt;User asks how much they spent on Uber in June&lt;/li&gt;&lt;li&gt;Query the vector store to find all transactions related to Uber and June&lt;/li&gt;&lt;li&gt;Use those transactions to query the DB and create the aggregation&lt;/li&gt;&lt;/ul&gt;&lt;li&gt;Outputs created for a user will also be stored in the vector store to create a simple feedback loop&lt;/li&gt;&lt;/ul&gt;&lt;/div&gt;" style="text;html=1;align=left;verticalAlign=middle;resizable=0;points=[];autosize=1;strokeColor=none;fillColor=none;" vertex="1" parent="1">
          <mxGeometry y="1465" width="990" height="250" as="geometry" />
        </mxCell>
        <mxCell id="uvxar91uTMjzyahuhUPR-3" style="edgeStyle=orthogonalEdgeStyle;rounded=0;orthogonalLoop=1;jettySize=auto;html=1;" edge="1" parent="1" source="uvxar91uTMjzyahuhUPR-4" target="uvxar91uTMjzyahuhUPR-6">
          <mxGeometry relative="1" as="geometry">
            <mxPoint x="190" y="1740" as="targetPoint" />
          </mxGeometry>
        </mxCell>
        <mxCell id="uvxar91uTMjzyahuhUPR-4" value="PDF ingestion" style="whiteSpace=wrap;html=1;aspect=fixed;" vertex="1" parent="1">
          <mxGeometry y="1950" width="80" height="80" as="geometry" />
        </mxCell>
        <mxCell id="uvxar91uTMjzyahuhUPR-55" style="edgeStyle=orthogonalEdgeStyle;rounded=0;orthogonalLoop=1;jettySize=auto;html=1;entryX=0;entryY=0.5;entryDx=0;entryDy=0;" edge="1" parent="1" source="uvxar91uTMjzyahuhUPR-6" target="uvxar91uTMjzyahuhUPR-54">
          <mxGeometry relative="1" as="geometry" />
        </mxCell>
        <mxCell id="uvxar91uTMjzyahuhUPR-6" value="Extract data" style="whiteSpace=wrap;html=1;aspect=fixed;" vertex="1" parent="1">
          <mxGeometry x="120" y="1950" width="80" height="80" as="geometry" />
        </mxCell>
        <mxCell id="uvxar91uTMjzyahuhUPR-9" style="edgeStyle=orthogonalEdgeStyle;rounded=0;orthogonalLoop=1;jettySize=auto;html=1;" edge="1" parent="1" source="uvxar91uTMjzyahuhUPR-10" target="uvxar91uTMjzyahuhUPR-12">
          <mxGeometry relative="1" as="geometry">
            <mxPoint x="860" y="1840" as="targetPoint" />
          </mxGeometry>
        </mxCell>
        <mxCell id="uvxar91uTMjzyahuhUPR-10" value="Store in DB" style="whiteSpace=wrap;html=1;aspect=fixed;" vertex="1" parent="1">
          <mxGeometry x="480" y="1790" width="80" height="80" as="geometry" />
        </mxCell>
        <mxCell id="uvxar91uTMjzyahuhUPR-11" style="edgeStyle=orthogonalEdgeStyle;rounded=0;orthogonalLoop=1;jettySize=auto;html=1;entryX=0.5;entryY=0;entryDx=0;entryDy=0;" edge="1" parent="1" source="uvxar91uTMjzyahuhUPR-12" target="uvxar91uTMjzyahuhUPR-64">
          <mxGeometry relative="1" as="geometry">
            <mxPoint x="710" y="1830" as="targetPoint" />
          </mxGeometry>
        </mxCell>
        <mxCell id="uvxar91uTMjzyahuhUPR-12" value="Transform" style="whiteSpace=wrap;html=1;aspect=fixed;" vertex="1" parent="1">
          <mxGeometry x="590" y="1790" width="80" height="80" as="geometry" />
        </mxCell>
        <mxCell id="uvxar91uTMjzyahuhUPR-50" style="edgeStyle=orthogonalEdgeStyle;rounded=0;orthogonalLoop=1;jettySize=auto;html=1;entryX=0;entryY=0.5;entryDx=0;entryDy=0;" edge="1" parent="1" source="uvxar91uTMjzyahuhUPR-49" target="uvxar91uTMjzyahuhUPR-10">
          <mxGeometry relative="1" as="geometry">
            <mxPoint x="470" y="1840" as="targetPoint" />
          </mxGeometry>
        </mxCell>
        <mxCell id="uvxar91uTMjzyahuhUPR-51" value="All data" style="edgeLabel;html=1;align=center;verticalAlign=middle;resizable=0;points=[];" vertex="1" connectable="0" parent="uvxar91uTMjzyahuhUPR-50">
          <mxGeometry x="-0.2462" y="1" relative="1" as="geometry">
            <mxPoint as="offset" />
          </mxGeometry>
        </mxCell>
        <mxCell id="uvxar91uTMjzyahuhUPR-52" style="edgeStyle=orthogonalEdgeStyle;rounded=0;orthogonalLoop=1;jettySize=auto;html=1;entryX=0;entryY=0.6;entryDx=0;entryDy=0;entryPerimeter=0;" edge="1" parent="1" source="uvxar91uTMjzyahuhUPR-49" target="uvxar91uTMjzyahuhUPR-58">
          <mxGeometry relative="1" as="geometry">
            <mxPoint x="470" y="2180" as="targetPoint" />
          </mxGeometry>
        </mxCell>
        <mxCell id="uvxar91uTMjzyahuhUPR-53" value="Qualitative data" style="edgeLabel;html=1;align=center;verticalAlign=middle;resizable=0;points=[];" vertex="1" connectable="0" parent="uvxar91uTMjzyahuhUPR-52">
          <mxGeometry x="-0.5308" relative="1" as="geometry">
            <mxPoint as="offset" />
          </mxGeometry>
        </mxCell>
        <mxCell id="uvxar91uTMjzyahuhUPR-49" value="" style="rhombus;whiteSpace=wrap;html=1;" vertex="1" parent="1">
          <mxGeometry x="410" y="1950" width="80" height="80" as="geometry" />
        </mxCell>
        <mxCell id="uvxar91uTMjzyahuhUPR-56" style="edgeStyle=orthogonalEdgeStyle;rounded=0;orthogonalLoop=1;jettySize=auto;html=1;entryX=0;entryY=0.5;entryDx=0;entryDy=0;" edge="1" parent="1" source="uvxar91uTMjzyahuhUPR-54" target="uvxar91uTMjzyahuhUPR-49">
          <mxGeometry relative="1" as="geometry" />
        </mxCell>
        <mxCell id="uvxar91uTMjzyahuhUPR-54" value="Use LLM to structure data" style="whiteSpace=wrap;html=1;aspect=fixed;" vertex="1" parent="1">
          <mxGeometry x="240" y="1950" width="80" height="80" as="geometry" />
        </mxCell>
        <mxCell id="uvxar91uTMjzyahuhUPR-57" style="edgeStyle=orthogonalEdgeStyle;rounded=0;orthogonalLoop=1;jettySize=auto;html=1;" edge="1" parent="1" source="uvxar91uTMjzyahuhUPR-58" target="uvxar91uTMjzyahuhUPR-60">
          <mxGeometry relative="1" as="geometry">
            <mxPoint x="870" y="2110" as="targetPoint" />
          </mxGeometry>
        </mxCell>
        <mxCell id="uvxar91uTMjzyahuhUPR-58" value="Create embeddings" style="whiteSpace=wrap;html=1;aspect=fixed;" vertex="1" parent="1">
          <mxGeometry x="490" y="2060" width="80" height="80" as="geometry" />
        </mxCell>
        <mxCell id="uvxar91uTMjzyahuhUPR-59" style="edgeStyle=orthogonalEdgeStyle;rounded=0;orthogonalLoop=1;jettySize=auto;html=1;entryX=0.5;entryY=1;entryDx=0;entryDy=0;" edge="1" parent="1" source="uvxar91uTMjzyahuhUPR-60" target="uvxar91uTMjzyahuhUPR-64">
          <mxGeometry relative="1" as="geometry">
            <mxPoint x="720" y="2100" as="targetPoint" />
          </mxGeometry>
        </mxCell>
        <mxCell id="uvxar91uTMjzyahuhUPR-60" value="Store in vector store" style="whiteSpace=wrap;html=1;aspect=fixed;" vertex="1" parent="1">
          <mxGeometry x="600" y="2060" width="80" height="80" as="geometry" />
        </mxCell>
        <mxCell id="uvxar91uTMjzyahuhUPR-65" style="edgeStyle=orthogonalEdgeStyle;rounded=0;orthogonalLoop=1;jettySize=auto;html=1;" edge="1" parent="1" source="uvxar91uTMjzyahuhUPR-64" target="uvxar91uTMjzyahuhUPR-66">
          <mxGeometry relative="1" as="geometry">
            <mxPoint x="870" y="1950" as="targetPoint" />
          </mxGeometry>
        </mxCell>
        <mxCell id="uvxar91uTMjzyahuhUPR-64" value="Receive query from the user" style="whiteSpace=wrap;html=1;aspect=fixed;" vertex="1" parent="1">
          <mxGeometry x="710" y="1910" width="80" height="80" as="geometry" />
        </mxCell>
        <mxCell id="uvxar91uTMjzyahuhUPR-68" style="edgeStyle=orthogonalEdgeStyle;rounded=0;orthogonalLoop=1;jettySize=auto;html=1;entryX=0;entryY=0.5;entryDx=0;entryDy=0;" edge="1" parent="1" source="uvxar91uTMjzyahuhUPR-66" target="uvxar91uTMjzyahuhUPR-67">
          <mxGeometry relative="1" as="geometry" />
        </mxCell>
        <mxCell id="uvxar91uTMjzyahuhUPR-66" value="Agent decides on tool to use" style="whiteSpace=wrap;html=1;aspect=fixed;" vertex="1" parent="1">
          <mxGeometry x="835" y="1910" width="80" height="80" as="geometry" />
        </mxCell>
        <mxCell id="uvxar91uTMjzyahuhUPR-69" style="edgeStyle=orthogonalEdgeStyle;rounded=0;orthogonalLoop=1;jettySize=auto;html=1;entryX=0;entryY=0.5;entryDx=0;entryDy=0;" edge="1" parent="1" source="uvxar91uTMjzyahuhUPR-67" target="uvxar91uTMjzyahuhUPR-73">
          <mxGeometry relative="1" as="geometry">
            <mxPoint x="1000" y="1790" as="targetPoint" />
            <Array as="points">
              <mxPoint x="1000" y="1850" />
              <mxPoint x="1001" y="1850" />
              <mxPoint x="1001" y="1810" />
            </Array>
          </mxGeometry>
        </mxCell>
        <mxCell id="uvxar91uTMjzyahuhUPR-71" value="Vector Store" style="edgeLabel;html=1;align=center;verticalAlign=middle;resizable=0;points=[];" vertex="1" connectable="0" parent="uvxar91uTMjzyahuhUPR-69">
          <mxGeometry x="-0.1701" y="-2" relative="1" as="geometry">
            <mxPoint as="offset" />
          </mxGeometry>
        </mxCell>
        <mxCell id="uvxar91uTMjzyahuhUPR-70" style="edgeStyle=orthogonalEdgeStyle;rounded=0;orthogonalLoop=1;jettySize=auto;html=1;entryX=0;entryY=0.5;entryDx=0;entryDy=0;exitX=0.5;exitY=1;exitDx=0;exitDy=0;" edge="1" parent="1" source="uvxar91uTMjzyahuhUPR-67" target="uvxar91uTMjzyahuhUPR-74">
          <mxGeometry relative="1" as="geometry">
            <mxPoint x="1000" y="2110" as="targetPoint" />
          </mxGeometry>
        </mxCell>
        <mxCell id="uvxar91uTMjzyahuhUPR-72" value="SQL DB" style="edgeLabel;html=1;align=center;verticalAlign=middle;resizable=0;points=[];" vertex="1" connectable="0" parent="uvxar91uTMjzyahuhUPR-70">
          <mxGeometry x="-0.1535" y="2" relative="1" as="geometry">
            <mxPoint as="offset" />
          </mxGeometry>
        </mxCell>
        <mxCell id="uvxar91uTMjzyahuhUPR-67" value="" style="rhombus;whiteSpace=wrap;html=1;" vertex="1" parent="1">
          <mxGeometry x="960" y="1910" width="80" height="80" as="geometry" />
        </mxCell>
        <mxCell id="uvxar91uTMjzyahuhUPR-75" style="edgeStyle=orthogonalEdgeStyle;rounded=0;orthogonalLoop=1;jettySize=auto;html=1;entryX=0.5;entryY=0;entryDx=0;entryDy=0;" edge="1" parent="1" source="uvxar91uTMjzyahuhUPR-73" target="uvxar91uTMjzyahuhUPR-74">
          <mxGeometry relative="1" as="geometry" />
        </mxCell>
        <mxCell id="uvxar91uTMjzyahuhUPR-73" value="Retrieve related transactions" style="whiteSpace=wrap;html=1;aspect=fixed;" vertex="1" parent="1">
          <mxGeometry x="1100" y="1770" width="80" height="80" as="geometry" />
        </mxCell>
        <mxCell id="uvxar91uTMjzyahuhUPR-76" style="edgeStyle=orthogonalEdgeStyle;rounded=0;orthogonalLoop=1;jettySize=auto;html=1;" edge="1" parent="1" source="uvxar91uTMjzyahuhUPR-74">
          <mxGeometry relative="1" as="geometry">
            <mxPoint x="1240" y="2080" as="targetPoint" />
          </mxGeometry>
        </mxCell>
        <mxCell id="uvxar91uTMjzyahuhUPR-74" value="Create SQL Query" style="whiteSpace=wrap;html=1;aspect=fixed;" vertex="1" parent="1">
          <mxGeometry x="1100" y="2040" width="80" height="80" as="geometry" />
        </mxCell>
        <mxCell id="uvxar91uTMjzyahuhUPR-78" style="edgeStyle=orthogonalEdgeStyle;rounded=0;orthogonalLoop=1;jettySize=auto;html=1;" edge="1" parent="1" source="uvxar91uTMjzyahuhUPR-77">
          <mxGeometry relative="1" as="geometry">
            <mxPoint x="1450" y="2080" as="targetPoint" />
          </mxGeometry>
        </mxCell>
        <mxCell id="uvxar91uTMjzyahuhUPR-80" style="edgeStyle=orthogonalEdgeStyle;rounded=0;orthogonalLoop=1;jettySize=auto;html=1;exitX=0.5;exitY=1;exitDx=0;exitDy=0;entryX=0.5;entryY=1;entryDx=0;entryDy=0;" edge="1" parent="1" source="uvxar91uTMjzyahuhUPR-77" target="uvxar91uTMjzyahuhUPR-58">
          <mxGeometry relative="1" as="geometry" />
        </mxCell>
        <mxCell id="uvxar91uTMjzyahuhUPR-82" value="Store in vector store. Serves as further context" style="edgeLabel;html=1;align=center;verticalAlign=middle;resizable=0;points=[];" vertex="1" connectable="0" parent="uvxar91uTMjzyahuhUPR-80">
          <mxGeometry x="0.1111" y="3" relative="1" as="geometry">
            <mxPoint as="offset" />
          </mxGeometry>
        </mxCell>
        <mxCell id="uvxar91uTMjzyahuhUPR-77" value="Format into output using LLM" style="whiteSpace=wrap;html=1;aspect=fixed;" vertex="1" parent="1">
          <mxGeometry x="1240" y="2040" width="80" height="80" as="geometry" />
        </mxCell>
        <mxCell id="uvxar91uTMjzyahuhUPR-79" value="Show to user" style="whiteSpace=wrap;html=1;aspect=fixed;" vertex="1" parent="1">
          <mxGeometry x="1450" y="2040" width="80" height="80" as="geometry" />
        </mxCell>
      </root>
    </mxGraphModel>
  </diagram>
</mxfile>
